<svg width="24" height="24" viewBox="0 0 24 24" fill="none" xmlns="http://www.w3.org/2000/svg">
<g clip-path="url(#clip0_8_18)">
<path d="M12 0.751953C5.78681 0.751953 0.75 5.78872 0.75 12.002C0.75 18.2152 5.78681 23.252 12 23.252C18.2132 23.252 23.25 18.2151 23.25 12.002C23.25 5.78877 18.2132 0.751953 12 0.751953ZM18.8943 18.8962C17.1847 20.6006 14.9018 21.6075 12.4905 21.7206C10.0791 21.8337 7.71201 21.045 5.85038 19.5082C3.98876 17.9714 2.76599 15.7965 2.42032 13.4074C2.07466 11.0182 2.63087 8.58596 3.98057 6.58452C5.33028 4.58307 7.37678 3.15582 9.72133 2.58086C12.0659 2.00591 14.5405 2.32443 16.663 3.47437C18.7856 4.62432 20.4039 6.5233 21.2028 8.8013C22.0017 11.0793 21.9238 13.5731 20.9844 15.7969C20.4948 16.9555 19.785 18.0081 18.8943 18.8962Z" fill="#F8F8F8"/>
<path d="M12.7788 7.73374L11.7181 6.6731L6.3893 12.0019L11.7181 17.3307L12.7788 16.27L9.26063 12.7519H18.0469V11.2519H9.26063L12.7788 7.73374Z" fill="#F8F8F8"/>
</g>
<defs>
<clipPath id="clip0_8_18">
<rect width="24" height="24" fill="white"/>
</clipPath>
</defs>
</svg>
